<?xml version="1.0" encoding="iso-8859-1"?>
<!-- Generator: Adobe Illustrator 18.0.0, SVG Export Plug-In . SVG Version: 6.00 Build 0)  -->
<!DOCTYPE svg PUBLIC "-//W3C//DTD SVG 1.1//EN" "http://www.w3.org/Graphics/SVG/1.1/DTD/svg11.dtd">
<svg width="25" height="21" xmlns="http://www.w3.org/2000/svg" class="h-auto"><path d="M2.5 2c1.925 2.445 5.373 4.752 10 5-.255-1.062-.28-3.943 1.738-5.141C15.14 1.324 15.994 1 17 1c1.265 0 2.302.434 3.406 1.488.899-.131 2.577-.852 2.975-1.135-.259.994-1.296 2.271-2.046 2.574.688-.003 2.202-.413 2.665-.656-.643 1.033-1.766 2.023-2.381 2.434C22.331 12.075 16.653 19.992 8.5 20c-2.329.002-4.859-.492-7.5-2 2.605.305 5.397-.539 7-2-2.021-.046-4.069-1.408-5-3.5 1.013.315 1.947.475 2.5 0-.943-.106-4-1.78-4-5.022C2.203 8.059 3.214 8.66 4 8.5 2.713 7.738.844 4.837 2.5 2z" stroke="#fff" fill="#fff" stroke-linecap="round" stroke-linejoin="round"></path></svg>
